<?xml version="1.0" encoding="utf-8" standalone="no"?>
<!DOCTYPE svg PUBLIC "-//W3C//DTD SVG 1.1//EN"
  "http://www.w3.org/Graphics/SVG/1.1/DTD/svg11.dtd">
<!-- Created with matplotlib (http://matplotlib.org/) -->
<svg height="216pt" version="1.1" viewBox="0 0 216 216" width="216pt" xmlns="http://www.w3.org/2000/svg" xmlns:xlink="http://www.w3.org/1999/xlink">
 <defs>
  <style type="text/css">
*{stroke-linecap:butt;stroke-linejoin:round;}
  </style>
 </defs>
 <g id="figure_1">
  <g id="patch_1">
   <path d="M 0 216 
L 216 216 
L 216 0 
L 0 0 
z
" style="fill:#ffffff;"/>
  </g>
  <g id="axes_1">
   <g id="patch_2">
    <path d="M 95.309325 159.058458 
L 120.690675 159.058458 
L 120.690675 23.36505 
L 95.309325 23.36505 
z
" style="fill:#ffffff;"/>
   </g>
   <g id="PathCollection_1">
    <defs>
     <path d="M 0 5 
C 1.326016 5 2.597899 4.473168 3.535534 3.535534 
C 4.473168 2.597899 5 1.326016 5 0 
C 5 -1.326016 4.473168 -2.597899 3.535534 -3.535534 
C 2.597899 -4.473168 1.326016 -5 0 -5 
C -1.326016 -5 -2.597899 -4.473168 -3.535534 -3.535534 
C -4.473168 -2.597899 -5 -1.326016 -5 0 
C -5 1.326016 -4.473168 2.597899 -3.535534 3.535534 
C -2.597899 4.473168 -1.326016 5 0 5 
z
" id="mea44604713" style="stroke:#000000;stroke-opacity:0.8;"/>
    </defs>
    <g clip-path="url(#p8cf2f6af28)">
     <use style="fill:#ffffff;fill-opacity:0.8;stroke:#000000;stroke-opacity:0.8;" x="97.874307" xlink:href="#mea44604713" y="131.12158"/>
     <use style="fill:#ffffff;fill-opacity:0.8;stroke:#000000;stroke-opacity:0.8;" x="97.874307" xlink:href="#mea44604713" y="130.456416"/>
     <use style="fill:#ffffff;fill-opacity:0.8;stroke:#000000;stroke-opacity:0.8;" x="97.874307" xlink:href="#mea44604713" y="104.515029"/>
     <use style="fill:#ffffff;fill-opacity:0.8;stroke:#000000;stroke-opacity:0.8;" x="97.874307" xlink:href="#mea44604713" y="131.12158"/>
     <use style="fill:#ffffff;fill-opacity:0.8;stroke:#000000;stroke-opacity:0.8;" x="97.874307" xlink:href="#mea44604713" y="119.148632"/>
     <use style="fill:#ffffff;fill-opacity:0.8;stroke:#000000;stroke-opacity:0.8;" x="97.874307" xlink:href="#mea44604713" y="139.768709"/>
     <use style="fill:#ffffff;fill-opacity:0.8;stroke:#000000;stroke-opacity:0.8;" x="97.874307" xlink:href="#mea44604713" y="131.12158"/>
     <use style="fill:#ffffff;fill-opacity:0.8;stroke:#000000;stroke-opacity:0.8;" x="97.874307" xlink:href="#mea44604713" y="104.515029"/>
     <use style="fill:#ffffff;fill-opacity:0.8;stroke:#000000;stroke-opacity:0.8;" x="97.874307" xlink:href="#mea44604713" y="99.193719"/>
     <use style="fill:#ffffff;fill-opacity:0.8;stroke:#000000;stroke-opacity:0.8;" x="97.874307" xlink:href="#mea44604713" y="131.12158"/>
    </g>
   </g>
   <g id="PathCollection_2">
    <defs>
     <path d="M 0 2.738613 
C 0.726289 2.738613 1.422928 2.450055 1.936492 1.936492 
C 2.450055 1.422928 2.738613 0.726289 2.738613 0 
C 2.738613 -0.726289 2.450055 -1.422928 1.936492 -1.936492 
C 1.422928 -2.450055 0.726289 -2.738613 0 -2.738613 
C -0.726289 -2.738613 -1.422928 -2.450055 -1.936492 -1.936492 
C -2.450055 -1.422928 -2.738613 -0.726289 -2.738613 0 
C -2.738613 0.726289 -2.450055 1.422928 -1.936492 1.936492 
C -1.422928 2.450055 -0.726289 2.738613 0 2.738613 
z
" id="m98c3c512fb" style="stroke:#000000;stroke-opacity:0.8;"/>
    </defs>
    <g clip-path="url(#p8cf2f6af28)">
     <use style="fill-opacity:0.8;stroke:#000000;stroke-opacity:0.8;" x="97.874307" xlink:href="#m98c3c512fb" y="127.130597"/>
     <use style="fill-opacity:0.8;stroke:#000000;stroke-opacity:0.8;" x="97.874307" xlink:href="#m98c3c512fb" y="95.202736"/>
     <use style="fill-opacity:0.8;stroke:#000000;stroke-opacity:0.8;" x="97.874307" xlink:href="#m98c3c512fb" y="109.171175"/>
     <use style="fill-opacity:0.8;stroke:#000000;stroke-opacity:0.8;" x="97.874307" xlink:href="#m98c3c512fb" y="126.465433"/>
     <use style="fill-opacity:0.8;stroke:#000000;stroke-opacity:0.8;" x="97.874307" xlink:href="#m98c3c512fb" y="111.166667"/>
     <use style="fill-opacity:0.8;stroke:#000000;stroke-opacity:0.8;" x="97.874307" xlink:href="#m98c3c512fb" y="148.415837"/>
     <use style="fill-opacity:0.8;stroke:#000000;stroke-opacity:0.8;" x="97.874307" xlink:href="#m98c3c512fb" y="123.139614"/>
     <use style="fill-opacity:0.8;stroke:#000000;stroke-opacity:0.8;" x="97.874307" xlink:href="#m98c3c512fb" y="103.184702"/>
     <use style="fill-opacity:0.8;stroke:#000000;stroke-opacity:0.8;" x="97.874307" xlink:href="#m98c3c512fb" y="87.220771"/>
     <use style="fill-opacity:0.8;stroke:#000000;stroke-opacity:0.8;" x="97.874307" xlink:href="#m98c3c512fb" y="129.126088"/>
    </g>
   </g>
   <g id="PathCollection_3">
    <g clip-path="url(#p8cf2f6af28)">
     <use style="fill:#ffffff;fill-opacity:0.8;stroke:#000000;stroke-opacity:0.8;" x="118.620186" xlink:href="#mea44604713" y="157.72813"/>
     <use style="fill:#ffffff;fill-opacity:0.8;stroke:#000000;stroke-opacity:0.8;" x="118.620186" xlink:href="#mea44604713" y="157.72813"/>
     <use style="fill:#ffffff;fill-opacity:0.8;stroke:#000000;stroke-opacity:0.8;" x="118.620186" xlink:href="#mea44604713" y="157.72813"/>
     <use style="fill:#ffffff;fill-opacity:0.8;stroke:#000000;stroke-opacity:0.8;" x="118.620186" xlink:href="#mea44604713" y="157.72813"/>
     <use style="fill:#ffffff;fill-opacity:0.8;stroke:#000000;stroke-opacity:0.8;" x="118.620186" xlink:href="#mea44604713" y="157.72813"/>
     <use style="fill:#ffffff;fill-opacity:0.8;stroke:#000000;stroke-opacity:0.8;" x="118.620186" xlink:href="#mea44604713" y="157.72813"/>
     <use style="fill:#ffffff;fill-opacity:0.8;stroke:#000000;stroke-opacity:0.8;" x="118.620186" xlink:href="#mea44604713" y="157.72813"/>
     <use style="fill:#ffffff;fill-opacity:0.8;stroke:#000000;stroke-opacity:0.8;" x="118.620186" xlink:href="#mea44604713" y="157.72813"/>
     <use style="fill:#ffffff;fill-opacity:0.8;stroke:#000000;stroke-opacity:0.8;" x="118.620186" xlink:href="#mea44604713" y="157.72813"/>
     <use style="fill:#ffffff;fill-opacity:0.8;stroke:#000000;stroke-opacity:0.8;" x="118.620186" xlink:href="#mea44604713" y="157.72813"/>
    </g>
   </g>
   <g id="PathCollection_4">
    <g clip-path="url(#p8cf2f6af28)">
     <use style="fill-opacity:0.8;stroke:#000000;stroke-opacity:0.8;" x="118.620186" xlink:href="#m98c3c512fb" y="157.72813"/>
     <use style="fill-opacity:0.8;stroke:#000000;stroke-opacity:0.8;" x="118.620186" xlink:href="#m98c3c512fb" y="157.72813"/>
     <use style="fill-opacity:0.8;stroke:#000000;stroke-opacity:0.8;" x="118.620186" xlink:href="#m98c3c512fb" y="157.72813"/>
     <use style="fill-opacity:0.8;stroke:#000000;stroke-opacity:0.8;" x="118.620186" xlink:href="#m98c3c512fb" y="157.72813"/>
     <use style="fill-opacity:0.8;stroke:#000000;stroke-opacity:0.8;" x="118.620186" xlink:href="#m98c3c512fb" y="157.72813"/>
     <use style="fill-opacity:0.8;stroke:#000000;stroke-opacity:0.8;" x="118.620186" xlink:href="#m98c3c512fb" y="157.72813"/>
     <use style="fill-opacity:0.8;stroke:#000000;stroke-opacity:0.8;" x="118.620186" xlink:href="#m98c3c512fb" y="157.72813"/>
     <use style="fill-opacity:0.8;stroke:#000000;stroke-opacity:0.8;" x="118.620186" xlink:href="#m98c3c512fb" y="157.72813"/>
     <use style="fill-opacity:0.8;stroke:#000000;stroke-opacity:0.8;" x="118.620186" xlink:href="#m98c3c512fb" y="157.72813"/>
     <use style="fill-opacity:0.8;stroke:#000000;stroke-opacity:0.8;" x="118.620186" xlink:href="#m98c3c512fb" y="157.72813"/>
    </g>
   </g>
   <g id="matplotlib.axis_1">
    <g id="xtick_1">
     <g id="line2d_1">
      <path clip-path="url(#p8cf2f6af28)" d="M 97.874307 159.058458 
L 97.874307 23.36505 
" style="fill:none;stroke:#b0b0b0;stroke-linecap:square;stroke-width:0.8;"/>
     </g>
     <g id="line2d_2">
      <defs>
       <path d="M 0 0 
L 0 3.5 
" id="m4b7d1b5a92" style="stroke:#000000;stroke-width:0.8;"/>
      </defs>
      <g>
       <use style="stroke:#000000;stroke-width:0.8;" x="97.874307" xlink:href="#m4b7d1b5a92" y="159.058458"/>
      </g>
     </g>
     <g id="text_1">
      <!-- Supervised -->
      <defs>
       <path d="M 62.59375 20.75 
Q 62.59375 16.5 60.609375 12.34375 
Q 58.640625 8.203125 55.078125 5.328125 
Q 51.171875 2.203125 45.96875 0.4375 
Q 40.765625 -1.3125 33.453125 -1.3125 
Q 25.59375 -1.3125 19.3125 0.140625 
Q 13.03125 1.609375 6.546875 4.5 
L 6.546875 16.609375 
L 7.234375 16.609375 
Q 12.75 12.015625 19.96875 9.515625 
Q 27.203125 7.03125 33.546875 7.03125 
Q 42.53125 7.03125 47.53125 10.390625 
Q 52.546875 13.765625 52.546875 19.390625 
Q 52.546875 24.21875 50.171875 26.515625 
Q 47.796875 28.8125 42.96875 30.078125 
Q 39.3125 31.0625 35.03125 31.6875 
Q 30.765625 32.328125 25.984375 33.296875 
Q 16.3125 35.359375 11.640625 40.3125 
Q 6.984375 45.265625 6.984375 53.21875 
Q 6.984375 62.359375 14.6875 68.1875 
Q 22.40625 74.03125 34.28125 74.03125 
Q 41.9375 74.03125 48.328125 72.5625 
Q 54.734375 71.09375 59.671875 68.953125 
L 59.671875 57.515625 
L 58.984375 57.515625 
Q 54.828125 61.03125 48.0625 63.34375 
Q 41.3125 65.671875 34.234375 65.671875 
Q 26.46875 65.671875 21.75 62.453125 
Q 17.046875 59.234375 17.046875 54.15625 
Q 17.046875 49.609375 19.390625 47.015625 
Q 21.734375 44.4375 27.640625 43.0625 
Q 30.765625 42.390625 36.515625 41.40625 
Q 42.28125 40.4375 46.296875 39.40625 
Q 54.390625 37.25 58.484375 32.90625 
Q 62.59375 28.5625 62.59375 20.75 
z
" id="Verdana-53"/>
       <path d="M 54.25 0 
L 45.0625 0 
L 45.0625 6.0625 
Q 40.4375 2.390625 36.1875 0.4375 
Q 31.9375 -1.515625 26.8125 -1.515625 
Q 18.21875 -1.515625 13.421875 3.734375 
Q 8.640625 8.984375 8.640625 19.140625 
L 8.640625 54.546875 
L 17.828125 54.546875 
L 17.828125 23.484375 
Q 17.828125 19.34375 18.21875 16.375 
Q 18.609375 13.421875 19.875 11.328125 
Q 21.1875 9.1875 23.28125 8.203125 
Q 25.390625 7.234375 29.390625 7.234375 
Q 32.953125 7.234375 37.171875 9.078125 
Q 41.40625 10.9375 45.0625 13.8125 
L 45.0625 54.546875 
L 54.25 54.546875 
z
" id="Verdana-75"/>
       <path d="M 57.03125 27.9375 
Q 57.03125 21.296875 55.125 15.796875 
Q 53.21875 10.296875 49.75 6.5 
Q 46.53125 2.875 42.15625 0.890625 
Q 37.796875 -1.078125 32.90625 -1.078125 
Q 28.65625 -1.078125 25.21875 -0.140625 
Q 21.78125 0.78125 18.21875 2.734375 
L 18.21875 -20.125 
L 9.03125 -20.125 
L 9.03125 54.546875 
L 18.21875 54.546875 
L 18.21875 48.828125 
Q 21.875 51.90625 26.4375 53.984375 
Q 31 56.0625 36.1875 56.0625 
Q 46.046875 56.0625 51.53125 48.609375 
Q 57.03125 41.15625 57.03125 27.9375 
z
M 47.5625 27.6875 
Q 47.5625 37.546875 44.1875 42.421875 
Q 40.828125 47.3125 33.84375 47.3125 
Q 29.890625 47.3125 25.875 45.59375 
Q 21.875 43.890625 18.21875 41.109375 
L 18.21875 10.203125 
Q 22.125 8.453125 24.921875 7.8125 
Q 27.734375 7.171875 31.296875 7.171875 
Q 38.96875 7.171875 43.265625 12.34375 
Q 47.5625 17.53125 47.5625 27.6875 
z
" id="Verdana-70"/>
       <path d="M 54.6875 26.3125 
L 14.5 26.3125 
Q 14.5 21.296875 16.015625 17.546875 
Q 17.53125 13.8125 20.171875 11.421875 
Q 22.703125 9.078125 26.1875 7.90625 
Q 29.6875 6.734375 33.890625 6.734375 
Q 39.453125 6.734375 45.09375 8.953125 
Q 50.734375 11.1875 53.125 13.328125 
L 53.609375 13.328125 
L 53.609375 3.328125 
Q 48.96875 1.375 44.140625 0.046875 
Q 39.3125 -1.265625 33.984375 -1.265625 
Q 20.40625 -1.265625 12.78125 6.078125 
Q 5.171875 13.421875 5.171875 26.953125 
Q 5.171875 40.328125 12.46875 48.1875 
Q 19.78125 56.0625 31.6875 56.0625 
Q 42.71875 56.0625 48.703125 49.609375 
Q 54.6875 43.171875 54.6875 31.296875 
z
M 45.75 33.34375 
Q 45.703125 40.578125 42.109375 44.53125 
Q 38.53125 48.484375 31.203125 48.484375 
Q 23.828125 48.484375 19.453125 44.140625 
Q 15.09375 39.796875 14.5 33.34375 
z
" id="Verdana-65"/>
       <path d="M 43.0625 44.53125 
L 42.578125 44.53125 
Q 40.53125 45.015625 38.59375 45.234375 
Q 36.671875 45.453125 34.03125 45.453125 
Q 29.78125 45.453125 25.828125 43.578125 
Q 21.875 41.703125 18.21875 38.71875 
L 18.21875 0 
L 9.03125 0 
L 9.03125 54.546875 
L 18.21875 54.546875 
L 18.21875 46.484375 
Q 23.6875 50.875 27.859375 52.703125 
Q 32.03125 54.546875 36.375 54.546875 
Q 38.765625 54.546875 39.84375 54.421875 
Q 40.921875 54.296875 43.0625 53.953125 
z
" id="Verdana-72"/>
       <path d="M 56.203125 54.546875 
L 34.125 0 
L 24.90625 0 
L 2.984375 54.546875 
L 12.9375 54.546875 
L 29.828125 11.140625 
L 46.578125 54.546875 
z
" id="Verdana-76"/>
       <path d="M 18.890625 63.671875 
L 8.546875 63.671875 
L 8.546875 73.1875 
L 18.890625 73.1875 
z
M 18.3125 0 
L 9.125 0 
L 9.125 54.546875 
L 18.3125 54.546875 
z
" id="Verdana-69"/>
       <path d="M 48 15.71875 
Q 48 8.25 41.8125 3.46875 
Q 35.640625 -1.3125 24.953125 -1.3125 
Q 18.890625 -1.3125 13.84375 0.125 
Q 8.796875 1.5625 5.375 3.265625 
L 5.375 13.578125 
L 5.859375 13.578125 
Q 10.203125 10.296875 15.515625 8.375 
Q 20.84375 6.453125 25.734375 6.453125 
Q 31.78125 6.453125 35.203125 8.40625 
Q 38.625 10.359375 38.625 14.546875 
Q 38.625 17.78125 36.765625 19.4375 
Q 34.90625 21.09375 29.640625 22.265625 
Q 27.6875 22.703125 24.53125 23.28125 
Q 21.390625 23.875 18.796875 24.5625 
Q 11.625 26.46875 8.609375 30.15625 
Q 5.609375 33.84375 5.609375 39.203125 
Q 5.609375 42.578125 7 45.546875 
Q 8.40625 48.53125 11.234375 50.875 
Q 13.96875 53.171875 18.1875 54.515625 
Q 22.40625 55.859375 27.640625 55.859375 
Q 32.515625 55.859375 37.515625 54.65625 
Q 42.53125 53.46875 45.84375 51.765625 
L 45.84375 41.9375 
L 45.359375 41.9375 
Q 41.84375 44.53125 36.8125 46.3125 
Q 31.78125 48.09375 26.953125 48.09375 
Q 21.921875 48.09375 18.453125 46.15625 
Q 14.984375 44.234375 14.984375 40.4375 
Q 14.984375 37.0625 17.09375 35.359375 
Q 19.140625 33.640625 23.734375 32.5625 
Q 26.265625 31.984375 29.40625 31.390625 
Q 32.5625 30.8125 34.671875 30.328125 
Q 41.0625 28.859375 44.53125 25.296875 
Q 48 21.6875 48 15.71875 
z
" id="Verdana-73"/>
       <path d="M 53.265625 0 
L 44.09375 0 
L 44.09375 5.71875 
Q 40.140625 2.296875 35.84375 0.390625 
Q 31.546875 -1.515625 26.515625 -1.515625 
Q 16.75 -1.515625 11.015625 6 
Q 5.28125 13.53125 5.28125 26.859375 
Q 5.28125 33.796875 7.25 39.203125 
Q 9.234375 44.625 12.59375 48.4375 
Q 15.921875 52.15625 20.328125 54.109375 
Q 24.75 56.0625 29.5 56.0625 
Q 33.796875 56.0625 37.109375 55.15625 
Q 40.4375 54.25 44.09375 52.34375 
L 44.09375 75.984375 
L 53.265625 75.984375 
z
M 44.09375 13.421875 
L 44.09375 44.734375 
Q 40.375 46.390625 37.4375 47.015625 
Q 34.515625 47.65625 31.0625 47.65625 
Q 23.34375 47.65625 19.046875 42.28125 
Q 14.75 36.921875 14.75 27.046875 
Q 14.75 17.328125 18.0625 12.28125 
Q 21.390625 7.234375 28.71875 7.234375 
Q 32.625 7.234375 36.625 8.953125 
Q 40.625 10.6875 44.09375 13.421875 
z
" id="Verdana-64"/>
      </defs>
      <g transform="translate(57.078665 210.803954)rotate(-45)scale(0.1 -0.1)">
       <use xlink:href="#Verdana-53"/>
       <use x="68.359375" xlink:href="#Verdana-75"/>
       <use x="131.640625" xlink:href="#Verdana-70"/>
       <use x="193.945312" xlink:href="#Verdana-65"/>
       <use x="253.515625" xlink:href="#Verdana-72"/>
       <use x="296.191406" xlink:href="#Verdana-76"/>
       <use x="355.371094" xlink:href="#Verdana-69"/>
       <use x="382.8125" xlink:href="#Verdana-73"/>
       <use x="434.912109" xlink:href="#Verdana-65"/>
       <use x="494.482422" xlink:href="#Verdana-64"/>
      </g>
     </g>
    </g>
    <g id="xtick_2">
     <g id="line2d_3">
      <path clip-path="url(#p8cf2f6af28)" d="M 118.620186 159.058458 
L 118.620186 23.36505 
" style="fill:none;stroke:#b0b0b0;stroke-linecap:square;stroke-width:0.8;"/>
     </g>
     <g id="line2d_4">
      <g>
       <use style="stroke:#000000;stroke-width:0.8;" x="118.620186" xlink:href="#m4b7d1b5a92" y="159.058458"/>
      </g>
     </g>
     <g id="text_2">
      <!-- Superv-BFGS -->
      <defs>
       <path d="M 37.9375 27.390625 
L 7.46875 27.390625 
L 7.46875 36.234375 
L 37.9375 36.234375 
z
" id="Verdana-2d"/>
       <path d="M 64.59375 22.359375 
Q 64.59375 16.9375 62.546875 12.78125 
Q 60.5 8.640625 57.03125 5.953125 
Q 52.9375 2.734375 48.015625 1.359375 
Q 43.109375 0 35.546875 0 
L 9.765625 0 
L 9.765625 72.703125 
L 31.296875 72.703125 
Q 39.265625 72.703125 43.21875 72.109375 
Q 47.171875 71.53125 50.78125 69.671875 
Q 54.78125 67.578125 56.59375 64.28125 
Q 58.40625 60.984375 58.40625 56.390625 
Q 58.40625 51.21875 55.765625 47.578125 
Q 53.125 43.953125 48.734375 41.75 
L 48.734375 41.359375 
Q 56.109375 39.84375 60.34375 34.890625 
Q 64.59375 29.9375 64.59375 22.359375 
z
M 48.34375 55.125 
Q 48.34375 57.765625 47.453125 59.5625 
Q 46.578125 61.375 44.625 62.5 
Q 42.328125 63.8125 39.0625 64.125 
Q 35.796875 64.453125 30.953125 64.453125 
L 19.4375 64.453125 
L 19.4375 43.453125 
L 31.9375 43.453125 
Q 36.46875 43.453125 39.15625 43.921875 
Q 41.84375 44.390625 44.140625 45.84375 
Q 46.4375 47.3125 47.390625 49.625 
Q 48.34375 51.953125 48.34375 55.125 
z
M 54.546875 21.96875 
Q 54.546875 26.375 53.21875 28.953125 
Q 51.90625 31.546875 48.4375 33.34375 
Q 46.09375 34.578125 42.75 34.9375 
Q 39.40625 35.296875 34.625 35.296875 
L 19.4375 35.296875 
L 19.4375 8.25 
L 32.234375 8.25 
Q 38.578125 8.25 42.625 8.90625 
Q 46.6875 9.578125 49.265625 11.328125 
Q 52 13.234375 53.265625 15.671875 
Q 54.546875 18.109375 54.546875 21.96875 
z
" id="Verdana-42"/>
       <path d="M 56.203125 64.109375 
L 19.4375 64.109375 
L 19.4375 43.609375 
L 51.03125 43.609375 
L 51.03125 35.015625 
L 19.4375 35.015625 
L 19.4375 0 
L 9.765625 0 
L 9.765625 72.703125 
L 56.203125 72.703125 
z
" id="Verdana-46"/>
       <path d="M 70.40625 5.375 
Q 64.453125 2.640625 57.390625 0.609375 
Q 50.34375 -1.421875 43.75 -1.421875 
Q 35.25 -1.421875 28.171875 0.921875 
Q 21.09375 3.265625 16.109375 7.953125 
Q 11.078125 12.703125 8.34375 19.796875 
Q 5.609375 26.90625 5.609375 36.421875 
Q 5.609375 53.859375 15.796875 63.9375 
Q 25.984375 74.03125 43.75 74.03125 
Q 49.953125 74.03125 56.421875 72.53125 
Q 62.890625 71.046875 70.359375 67.484375 
L 70.359375 56 
L 69.484375 56 
Q 67.96875 57.171875 65.078125 59.078125 
Q 62.203125 60.984375 59.421875 62.25 
Q 56.0625 63.765625 51.78125 64.765625 
Q 47.515625 65.765625 42.09375 65.765625 
Q 29.890625 65.765625 22.78125 57.921875 
Q 15.671875 50.09375 15.671875 36.71875 
Q 15.671875 22.609375 23.09375 14.765625 
Q 30.515625 6.9375 43.3125 6.9375 
Q 48 6.9375 52.65625 7.859375 
Q 57.328125 8.796875 60.84375 10.25 
L 60.84375 28.078125 
L 41.359375 28.078125 
L 41.359375 36.578125 
L 70.40625 36.578125 
z
" id="Verdana-47"/>
      </defs>
      <g transform="translate(69.62984 218.998659)rotate(-45)scale(0.1 -0.1)">
       <use xlink:href="#Verdana-53"/>
       <use x="68.359375" xlink:href="#Verdana-75"/>
       <use x="131.640625" xlink:href="#Verdana-70"/>
       <use x="193.945312" xlink:href="#Verdana-65"/>
       <use x="253.515625" xlink:href="#Verdana-72"/>
       <use x="296.191406" xlink:href="#Verdana-76"/>
       <use x="355.339844" xlink:href="#Verdana-2d"/>
       <use x="400.75" xlink:href="#Verdana-42"/>
       <use x="469.304688" xlink:href="#Verdana-46"/>
       <use x="526.775391" xlink:href="#Verdana-47"/>
       <use x="604.314453" xlink:href="#Verdana-53"/>
      </g>
     </g>
    </g>
   </g>
   <g id="matplotlib.axis_2">
    <g id="ytick_1">
     <g id="line2d_5">
      <path clip-path="url(#p8cf2f6af28)" d="M 95.309325 157.72813 
L 120.690675 157.72813 
" style="fill:none;stroke:#b0b0b0;stroke-linecap:square;stroke-width:0.8;"/>
     </g>
     <g id="line2d_6">
      <defs>
       <path d="M 0 0 
L -3.5 0 
" id="mfc96aafcbb" style="stroke:#000000;stroke-width:0.8;"/>
      </defs>
      <g>
       <use style="stroke:#000000;stroke-width:0.8;" x="95.309325" xlink:href="#mfc96aafcbb" y="157.72813"/>
      </g>
     </g>
     <g id="text_3">
      <!-- 0.0 -->
      <defs>
       <path d="M 56.984375 36.375 
Q 56.984375 16.796875 50.859375 7.640625 
Q 44.734375 -1.515625 31.84375 -1.515625 
Q 18.75 -1.515625 12.71875 7.765625 
Q 6.6875 17.046875 6.6875 36.28125 
Q 6.6875 55.671875 12.78125 64.921875 
Q 18.890625 74.171875 31.84375 74.171875 
Q 44.921875 74.171875 50.953125 64.765625 
Q 56.984375 55.375 56.984375 36.375 
z
M 44.140625 14.203125 
Q 45.84375 18.171875 46.453125 23.515625 
Q 47.078125 28.859375 47.078125 36.375 
Q 47.078125 43.796875 46.453125 49.265625 
Q 45.84375 54.734375 44.09375 58.546875 
Q 42.390625 62.3125 39.421875 64.203125 
Q 36.46875 66.109375 31.84375 66.109375 
Q 27.25 66.109375 24.234375 64.203125 
Q 21.234375 62.3125 19.484375 58.453125 
Q 17.828125 54.828125 17.21875 49.015625 
Q 16.609375 43.21875 16.609375 36.28125 
Q 16.609375 28.65625 17.140625 23.53125 
Q 17.671875 18.40625 19.4375 14.359375 
Q 21.046875 10.546875 24 8.546875 
Q 26.953125 6.546875 31.84375 6.546875 
Q 36.421875 6.546875 39.453125 8.453125 
Q 42.484375 10.359375 44.140625 14.203125 
z
" id="Verdana-30"/>
       <path d="M 24.03125 0 
L 12.359375 0 
L 12.359375 13.921875 
L 24.03125 13.921875 
z
" id="Verdana-2e"/>
      </defs>
      <g transform="translate(71.9562 161.527349)scale(0.1 -0.1)">
       <use xlink:href="#Verdana-30"/>
       <use x="63.574219" xlink:href="#Verdana-2e"/>
       <use x="99.951172" xlink:href="#Verdana-30"/>
      </g>
     </g>
    </g>
    <g id="ytick_2">
     <g id="line2d_7">
      <path clip-path="url(#p8cf2f6af28)" d="M 95.309325 131.12158 
L 120.690675 131.12158 
" style="fill:none;stroke:#b0b0b0;stroke-linecap:square;stroke-width:0.8;"/>
     </g>
     <g id="line2d_8">
      <g>
       <use style="stroke:#000000;stroke-width:0.8;" x="95.309325" xlink:href="#mfc96aafcbb" y="131.12158"/>
      </g>
     </g>
     <g id="text_4">
      <!-- 0.2 -->
      <defs>
       <path d="M 57.078125 0 
L 7.859375 0 
L 7.859375 10.203125 
Q 12.984375 14.59375 18.140625 18.984375 
Q 23.296875 23.390625 27.734375 27.734375 
Q 37.109375 36.8125 40.578125 42.15625 
Q 44.046875 47.515625 44.046875 53.71875 
Q 44.046875 59.375 40.3125 62.5625 
Q 36.578125 65.765625 29.890625 65.765625 
Q 25.4375 65.765625 20.265625 64.203125 
Q 15.09375 62.640625 10.15625 59.421875 
L 9.671875 59.421875 
L 9.671875 69.671875 
Q 13.140625 71.390625 18.921875 72.796875 
Q 24.703125 74.21875 30.125 74.21875 
Q 41.3125 74.21875 47.65625 68.8125 
Q 54 63.421875 54 54.203125 
Q 54 50.046875 52.953125 46.453125 
Q 51.90625 42.875 49.859375 39.65625 
Q 47.953125 36.625 45.390625 33.6875 
Q 42.828125 30.765625 39.15625 27.203125 
Q 33.9375 22.078125 28.359375 17.265625 
Q 22.796875 12.453125 17.96875 8.34375 
L 57.078125 8.34375 
z
" id="Verdana-32"/>
      </defs>
      <g transform="translate(71.9562 134.920798)scale(0.1 -0.1)">
       <use xlink:href="#Verdana-30"/>
       <use x="63.574219" xlink:href="#Verdana-2e"/>
       <use x="99.951172" xlink:href="#Verdana-32"/>
      </g>
     </g>
    </g>
    <g id="ytick_3">
     <g id="line2d_9">
      <path clip-path="url(#p8cf2f6af28)" d="M 95.309325 104.515029 
L 120.690675 104.515029 
" style="fill:none;stroke:#b0b0b0;stroke-linecap:square;stroke-width:0.8;"/>
     </g>
     <g id="line2d_10">
      <g>
       <use style="stroke:#000000;stroke-width:0.8;" x="95.309325" xlink:href="#mfc96aafcbb" y="104.515029"/>
      </g>
     </g>
     <g id="text_5">
      <!-- 0.4 -->
      <defs>
       <path d="M 58.734375 20.453125 
L 47.953125 20.453125 
L 47.953125 0 
L 38.578125 0 
L 38.578125 20.453125 
L 3.765625 20.453125 
L 3.765625 31.6875 
L 38.96875 72.703125 
L 47.953125 72.703125 
L 47.953125 28.265625 
L 58.734375 28.265625 
z
M 38.578125 28.265625 
L 38.578125 61.078125 
L 10.40625 28.265625 
z
" id="Verdana-34"/>
      </defs>
      <g transform="translate(71.9562 108.314248)scale(0.1 -0.1)">
       <use xlink:href="#Verdana-30"/>
       <use x="63.574219" xlink:href="#Verdana-2e"/>
       <use x="99.951172" xlink:href="#Verdana-34"/>
      </g>
     </g>
    </g>
    <g id="ytick_4">
     <g id="line2d_11">
      <path clip-path="url(#p8cf2f6af28)" d="M 95.309325 77.908479 
L 120.690675 77.908479 
" style="fill:none;stroke:#b0b0b0;stroke-linecap:square;stroke-width:0.8;"/>
     </g>
     <g id="line2d_12">
      <g>
       <use style="stroke:#000000;stroke-width:0.8;" x="95.309325" xlink:href="#mfc96aafcbb" y="77.908479"/>
      </g>
     </g>
     <g id="text_6">
      <!-- 0.6 -->
      <defs>
       <path d="M 58.15625 23.578125 
Q 58.15625 12.5 50.859375 5.484375 
Q 43.5625 -1.515625 32.953125 -1.515625 
Q 27.59375 -1.515625 23.1875 0.140625 
Q 18.796875 1.8125 15.4375 5.078125 
Q 11.234375 9.125 8.953125 15.8125 
Q 6.6875 22.515625 6.6875 31.9375 
Q 6.6875 41.609375 8.765625 49.078125 
Q 10.84375 56.546875 15.375 62.359375 
Q 19.671875 67.875 26.453125 70.96875 
Q 33.25 74.078125 42.28125 74.078125 
Q 45.171875 74.078125 47.125 73.828125 
Q 49.078125 73.578125 51.078125 72.953125 
L 51.078125 63.625 
L 50.59375 63.625 
Q 49.21875 64.359375 46.453125 65.015625 
Q 43.703125 65.671875 40.828125 65.671875 
Q 30.328125 65.671875 24.078125 59.109375 
Q 17.828125 52.546875 16.796875 41.359375 
Q 20.90625 43.84375 24.875 45.140625 
Q 28.859375 46.4375 34.078125 46.4375 
Q 38.71875 46.4375 42.25 45.578125 
Q 45.796875 44.734375 49.515625 42.140625 
Q 53.8125 39.15625 55.984375 34.609375 
Q 58.15625 30.078125 58.15625 23.578125 
z
M 48.25 23.1875 
Q 48.25 27.734375 46.90625 30.703125 
Q 45.5625 33.6875 42.484375 35.890625 
Q 40.234375 37.453125 37.5 37.9375 
Q 34.765625 38.421875 31.78125 38.421875 
Q 27.640625 38.421875 24.078125 37.4375 
Q 20.515625 36.46875 16.75 34.421875 
Q 16.65625 33.34375 16.59375 32.34375 
Q 16.546875 31.34375 16.546875 29.828125 
Q 16.546875 22.125 18.140625 17.65625 
Q 19.734375 13.1875 22.515625 10.59375 
Q 24.75 8.453125 27.359375 7.453125 
Q 29.984375 6.453125 33.0625 6.453125 
Q 40.140625 6.453125 44.1875 10.765625 
Q 48.25 15.09375 48.25 23.1875 
z
" id="Verdana-36"/>
      </defs>
      <g transform="translate(71.9562 81.707697)scale(0.1 -0.1)">
       <use xlink:href="#Verdana-30"/>
       <use x="63.574219" xlink:href="#Verdana-2e"/>
       <use x="99.951172" xlink:href="#Verdana-36"/>
      </g>
     </g>
    </g>
    <g id="ytick_5">
     <g id="line2d_13">
      <path clip-path="url(#p8cf2f6af28)" d="M 95.309325 51.301928 
L 120.690675 51.301928 
" style="fill:none;stroke:#b0b0b0;stroke-linecap:square;stroke-width:0.8;"/>
     </g>
     <g id="line2d_14">
      <g>
       <use style="stroke:#000000;stroke-width:0.8;" x="95.309325" xlink:href="#mfc96aafcbb" y="51.301928"/>
      </g>
     </g>
     <g id="text_7">
      <!-- 0.8 -->
      <defs>
       <path d="M 57.625 20.265625 
Q 57.625 10.84375 50.265625 4.59375 
Q 42.921875 -1.65625 31.78125 -1.65625 
Q 19.96875 -1.65625 12.953125 4.4375 
Q 5.953125 10.546875 5.953125 20.0625 
Q 5.953125 26.125 9.46875 31.03125 
Q 12.984375 35.9375 19.390625 38.8125 
L 19.390625 39.109375 
Q 13.53125 42.234375 10.71875 45.9375 
Q 7.90625 49.65625 7.90625 55.21875 
Q 7.90625 63.421875 14.640625 68.890625 
Q 21.390625 74.359375 31.78125 74.359375 
Q 42.671875 74.359375 49.171875 69.140625 
Q 55.671875 63.921875 55.671875 55.859375 
Q 55.671875 50.921875 52.59375 46.15625 
Q 49.515625 41.40625 43.5625 38.71875 
L 43.5625 38.421875 
Q 50.390625 35.5 54 31.203125 
Q 57.625 26.90625 57.625 20.265625 
z
M 46.046875 55.765625 
Q 46.046875 60.984375 42.015625 64.078125 
Q 37.984375 67.1875 31.734375 67.1875 
Q 25.59375 67.1875 21.65625 64.25 
Q 17.71875 61.328125 17.71875 56.34375 
Q 17.71875 52.828125 19.703125 50.265625 
Q 21.6875 47.703125 25.6875 45.703125 
Q 27.484375 44.828125 30.875 43.40625 
Q 34.28125 42 37.5 41.0625 
Q 42.328125 44.28125 44.1875 47.75 
Q 46.046875 51.21875 46.046875 55.765625 
z
M 47.5625 19.34375 
Q 47.5625 23.828125 45.578125 26.53125 
Q 43.609375 29.25 37.84375 31.984375 
Q 35.546875 33.0625 32.8125 33.984375 
Q 30.078125 34.90625 25.53125 36.578125 
Q 21.140625 34.1875 18.484375 30.078125 
Q 15.828125 25.984375 15.828125 20.796875 
Q 15.828125 14.203125 20.359375 9.90625 
Q 24.90625 5.609375 31.890625 5.609375 
Q 39.015625 5.609375 43.28125 9.265625 
Q 47.5625 12.9375 47.5625 19.34375 
z
" id="Verdana-38"/>
      </defs>
      <g transform="translate(71.9562 55.101147)scale(0.1 -0.1)">
       <use xlink:href="#Verdana-30"/>
       <use x="63.574219" xlink:href="#Verdana-2e"/>
       <use x="99.951172" xlink:href="#Verdana-38"/>
      </g>
     </g>
    </g>
    <g id="ytick_6">
     <g id="line2d_15">
      <path clip-path="url(#p8cf2f6af28)" d="M 95.309325 24.695378 
L 120.690675 24.695378 
" style="fill:none;stroke:#b0b0b0;stroke-linecap:square;stroke-width:0.8;"/>
     </g>
     <g id="line2d_16">
      <g>
       <use style="stroke:#000000;stroke-width:0.8;" x="95.309325" xlink:href="#mfc96aafcbb" y="24.695378"/>
      </g>
     </g>
     <g id="text_8">
      <!-- 1.0 -->
      <defs>
       <path d="M 52.9375 0 
L 13.578125 0 
L 13.578125 7.421875 
L 28.71875 7.421875 
L 28.71875 56.15625 
L 13.578125 56.15625 
L 13.578125 62.796875 
Q 16.65625 62.796875 20.171875 63.296875 
Q 23.6875 63.8125 25.484375 64.796875 
Q 27.734375 66.015625 29.03125 67.890625 
Q 30.328125 69.78125 30.515625 72.953125 
L 38.09375 72.953125 
L 38.09375 7.421875 
L 52.9375 7.421875 
z
" id="Verdana-31"/>
      </defs>
      <g transform="translate(71.9562 28.494596)scale(0.1 -0.1)">
       <use xlink:href="#Verdana-31"/>
       <use x="63.574219" xlink:href="#Verdana-2e"/>
       <use x="99.951172" xlink:href="#Verdana-30"/>
      </g>
     </g>
    </g>
   </g>
   <g id="patch_3">
    <path d="M 95.309325 159.058458 
L 95.309325 23.36505 
" style="fill:none;stroke:#000000;stroke-linecap:square;stroke-linejoin:miter;stroke-width:0.8;"/>
   </g>
   <g id="patch_4">
    <path d="M 120.690675 159.058458 
L 120.690675 23.36505 
" style="fill:none;stroke:#000000;stroke-linecap:square;stroke-linejoin:miter;stroke-width:0.8;"/>
   </g>
   <g id="patch_5">
    <path d="M 95.309325 159.058458 
L 120.690675 159.058458 
" style="fill:none;stroke:#000000;stroke-linecap:square;stroke-linejoin:miter;stroke-width:0.8;"/>
   </g>
   <g id="patch_6">
    <path d="M 95.309325 23.36505 
L 120.690675 23.36505 
" style="fill:none;stroke:#000000;stroke-linecap:square;stroke-linejoin:miter;stroke-width:0.8;"/>
   </g>
   <g id="text_9">
    <!-- Error rate, samples=200, classes=5, iterations=10 -->
    <defs>
     <path d="M 57.671875 0 
L 9.765625 0 
L 9.765625 72.703125 
L 57.671875 72.703125 
L 57.671875 64.109375 
L 19.4375 64.109375 
L 19.4375 44.1875 
L 57.671875 44.1875 
L 57.671875 35.59375 
L 19.4375 35.59375 
L 19.4375 8.59375 
L 57.671875 8.59375 
z
" id="Verdana-45"/>
     <path d="M 55.515625 27.25 
Q 55.515625 13.921875 48.671875 6.203125 
Q 41.84375 -1.515625 30.375 -1.515625 
Q 18.796875 -1.515625 11.984375 6.203125 
Q 5.171875 13.921875 5.171875 27.25 
Q 5.171875 40.578125 11.984375 48.3125 
Q 18.796875 56.0625 30.375 56.0625 
Q 41.84375 56.0625 48.671875 48.3125 
Q 55.515625 40.578125 55.515625 27.25 
z
M 46.046875 27.25 
Q 46.046875 37.84375 41.890625 42.984375 
Q 37.75 48.140625 30.375 48.140625 
Q 22.90625 48.140625 18.78125 42.984375 
Q 14.65625 37.84375 14.65625 27.25 
Q 14.65625 17 18.796875 11.6875 
Q 22.953125 6.390625 30.375 6.390625 
Q 37.703125 6.390625 41.875 11.640625 
Q 46.046875 16.890625 46.046875 27.25 
z
" id="Verdana-6f"/>
     <path id="Verdana-20"/>
     <path d="M 51.421875 0 
L 42.28125 0 
L 42.28125 5.8125 
Q 41.0625 4.984375 38.984375 3.484375 
Q 36.921875 2 34.96875 1.125 
Q 32.671875 0 29.6875 -0.75 
Q 26.703125 -1.515625 22.703125 -1.515625 
Q 15.328125 -1.515625 10.203125 3.359375 
Q 5.078125 8.25 5.078125 15.828125 
Q 5.078125 22.015625 7.734375 25.84375 
Q 10.40625 29.6875 15.328125 31.890625 
Q 20.3125 34.078125 27.296875 34.859375 
Q 34.28125 35.640625 42.28125 36.03125 
L 42.28125 37.453125 
Q 42.28125 40.578125 41.1875 42.625 
Q 40.09375 44.671875 38.03125 45.84375 
Q 36.078125 46.96875 33.34375 47.359375 
Q 30.609375 47.75 27.640625 47.75 
Q 24.03125 47.75 19.578125 46.796875 
Q 15.140625 45.84375 10.40625 44.046875 
L 9.90625 44.046875 
L 9.90625 53.375 
Q 12.59375 54.109375 17.671875 54.984375 
Q 22.75 55.859375 27.6875 55.859375 
Q 33.453125 55.859375 37.71875 54.90625 
Q 42 53.953125 45.125 51.65625 
Q 48.1875 49.421875 49.796875 45.84375 
Q 51.421875 42.28125 51.421875 37.015625 
z
M 42.28125 13.421875 
L 42.28125 28.609375 
Q 38.09375 28.375 32.390625 27.875 
Q 26.703125 27.390625 23.390625 26.46875 
Q 19.4375 25.34375 16.984375 22.96875 
Q 14.546875 20.609375 14.546875 16.453125 
Q 14.546875 11.765625 17.375 9.390625 
Q 20.21875 7.03125 26.03125 7.03125 
Q 30.859375 7.03125 34.859375 8.90625 
Q 38.875 10.796875 42.28125 13.421875 
z
" id="Verdana-61"/>
     <path d="M 37.359375 0.484375 
Q 34.765625 -0.203125 31.703125 -0.640625 
Q 28.65625 -1.078125 26.265625 -1.078125 
Q 17.921875 -1.078125 13.578125 3.40625 
Q 9.234375 7.90625 9.234375 17.828125 
L 9.234375 46.828125 
L 3.03125 46.828125 
L 3.03125 54.546875 
L 9.234375 54.546875 
L 9.234375 70.21875 
L 18.40625 70.21875 
L 18.40625 54.546875 
L 37.359375 54.546875 
L 37.359375 46.828125 
L 18.40625 46.828125 
L 18.40625 21.96875 
Q 18.40625 17.671875 18.59375 15.25 
Q 18.796875 12.84375 19.96875 10.75 
Q 21.046875 8.796875 22.921875 7.890625 
Q 24.8125 6.984375 28.65625 6.984375 
Q 30.90625 6.984375 33.34375 7.640625 
Q 35.796875 8.296875 36.859375 8.734375 
L 37.359375 8.734375 
z
" id="Verdana-74"/>
     <path d="M 28.078125 13.921875 
L 14.3125 -18.0625 
L 7.171875 -18.0625 
L 15.671875 13.921875 
z
" id="Verdana-2c"/>
     <path d="M 88.625 0 
L 79.4375 0 
L 79.4375 31.0625 
Q 79.4375 34.578125 79.125 37.84375 
Q 78.8125 41.109375 77.78125 43.0625 
Q 76.65625 45.171875 74.5625 46.234375 
Q 72.46875 47.3125 68.5 47.3125 
Q 64.65625 47.3125 60.796875 45.375 
Q 56.9375 43.453125 53.078125 40.484375 
Q 53.21875 39.359375 53.3125 37.859375 
Q 53.421875 36.375 53.421875 34.90625 
L 53.421875 0 
L 44.234375 0 
L 44.234375 31.0625 
Q 44.234375 34.671875 43.921875 37.90625 
Q 43.609375 41.15625 42.578125 43.109375 
Q 41.453125 45.21875 39.34375 46.265625 
Q 37.25 47.3125 33.296875 47.3125 
Q 29.546875 47.3125 25.75 45.453125 
Q 21.96875 43.609375 18.21875 40.71875 
L 18.21875 0 
L 9.03125 0 
L 9.03125 54.546875 
L 18.21875 54.546875 
L 18.21875 48.484375 
Q 22.515625 52.046875 26.78125 54.046875 
Q 31.0625 56.0625 35.890625 56.0625 
Q 41.453125 56.0625 45.328125 53.71875 
Q 49.21875 51.375 51.125 47.21875 
Q 56.6875 51.90625 61.28125 53.984375 
Q 65.875 56.0625 71.09375 56.0625 
Q 80.078125 56.0625 84.34375 50.609375 
Q 88.625 45.171875 88.625 35.40625 
z
" id="Verdana-6d"/>
     <path d="M 18.3125 0 
L 9.125 0 
L 9.125 75.984375 
L 18.3125 75.984375 
z
" id="Verdana-6c"/>
     <path d="M 69.875 38.1875 
L 11.96875 38.1875 
L 11.96875 46 
L 69.875 46 
z
M 69.875 17.671875 
L 11.96875 17.671875 
L 11.96875 25.484375 
L 69.875 25.484375 
z
" id="Verdana-3d"/>
     <path d="M 49.359375 3.421875 
Q 44.78125 1.21875 40.65625 0 
Q 36.53125 -1.21875 31.890625 -1.21875 
Q 25.984375 -1.21875 21.046875 0.515625 
Q 16.109375 2.25 12.59375 5.765625 
Q 9.03125 9.28125 7.078125 14.640625 
Q 5.125 20.015625 5.125 27.203125 
Q 5.125 40.578125 12.46875 48.1875 
Q 19.828125 55.8125 31.890625 55.8125 
Q 36.578125 55.8125 41.09375 54.484375 
Q 45.609375 53.171875 49.359375 51.265625 
L 49.359375 41.0625 
L 48.875 41.0625 
Q 44.671875 44.34375 40.203125 46.09375 
Q 35.75 47.859375 31.5 47.859375 
Q 23.6875 47.859375 19.171875 42.609375 
Q 14.65625 37.359375 14.65625 27.203125 
Q 14.65625 17.328125 19.0625 12.03125 
Q 23.484375 6.734375 31.5 6.734375 
Q 34.28125 6.734375 37.15625 7.46875 
Q 40.046875 8.203125 42.328125 9.375 
Q 44.34375 10.40625 46.09375 11.546875 
Q 47.859375 12.703125 48.875 13.53125 
L 49.359375 13.53125 
z
" id="Verdana-63"/>
     <path d="M 56.5 23.09375 
Q 56.5 18.015625 54.640625 13.375 
Q 52.78125 8.734375 49.5625 5.5625 
Q 46.046875 2.15625 41.1875 0.3125 
Q 36.328125 -1.515625 29.9375 -1.515625 
Q 23.96875 -1.515625 18.453125 -0.265625 
Q 12.9375 0.984375 9.125 2.734375 
L 9.125 13.03125 
L 9.8125 13.03125 
Q 13.8125 10.5 19.1875 8.71875 
Q 24.5625 6.9375 29.734375 6.9375 
Q 33.203125 6.9375 36.453125 7.90625 
Q 39.703125 8.890625 42.234375 11.328125 
Q 44.390625 13.421875 45.484375 16.34375 
Q 46.578125 19.28125 46.578125 23.140625 
Q 46.578125 26.90625 45.28125 29.484375 
Q 44 32.078125 41.703125 33.640625 
Q 39.15625 35.5 35.515625 36.25 
Q 31.890625 37.015625 27.390625 37.015625 
Q 23.09375 37.015625 19.109375 36.421875 
Q 15.140625 35.84375 12.25 35.25 
L 12.25 72.703125 
L 56 72.703125 
L 56 64.15625 
L 21.6875 64.15625 
L 21.6875 44.828125 
Q 23.78125 45.015625 25.96875 45.109375 
Q 28.171875 45.21875 29.78125 45.21875 
Q 35.6875 45.21875 40.125 44.21875 
Q 44.578125 43.21875 48.296875 40.671875 
Q 52.203125 37.984375 54.34375 33.734375 
Q 56.5 29.5 56.5 23.09375 
z
" id="Verdana-35"/>
     <path d="M 54.640625 0 
L 45.453125 0 
L 45.453125 31.0625 
Q 45.453125 34.8125 45.015625 38.109375 
Q 44.578125 41.40625 43.40625 43.265625 
Q 42.1875 45.3125 39.890625 46.3125 
Q 37.59375 47.3125 33.9375 47.3125 
Q 30.171875 47.3125 26.0625 45.453125 
Q 21.96875 43.609375 18.21875 40.71875 
L 18.21875 0 
L 9.03125 0 
L 9.03125 54.546875 
L 18.21875 54.546875 
L 18.21875 48.484375 
Q 22.515625 52.046875 27.09375 54.046875 
Q 31.6875 56.0625 36.53125 56.0625 
Q 45.359375 56.0625 50 50.734375 
Q 54.640625 45.40625 54.640625 35.40625 
z
" id="Verdana-6e"/>
    </defs>
    <g transform="translate(-46.124063 17.36505)scale(0.12 -0.12)">
     <use xlink:href="#Verdana-45"/>
     <use x="63.232422" xlink:href="#Verdana-72"/>
     <use x="105.908203" xlink:href="#Verdana-72"/>
     <use x="148.583984" xlink:href="#Verdana-6f"/>
     <use x="209.277344" xlink:href="#Verdana-72"/>
     <use x="251.953125" xlink:href="#Verdana-20"/>
     <use x="287.109375" xlink:href="#Verdana-72"/>
     <use x="329.769531" xlink:href="#Verdana-61"/>
     <use x="389.828125" xlink:href="#Verdana-74"/>
     <use x="429.232422" xlink:href="#Verdana-65"/>
     <use x="488.802734" xlink:href="#Verdana-2c"/>
     <use x="525.179688" xlink:href="#Verdana-20"/>
     <use x="560.335938" xlink:href="#Verdana-73"/>
     <use x="612.435547" xlink:href="#Verdana-61"/>
     <use x="672.494141" xlink:href="#Verdana-6d"/>
     <use x="769.759766" xlink:href="#Verdana-70"/>
     <use x="832.064453" xlink:href="#Verdana-6c"/>
     <use x="859.505859" xlink:href="#Verdana-65"/>
     <use x="919.076172" xlink:href="#Verdana-73"/>
     <use x="971.175781" xlink:href="#Verdana-3d"/>
     <use x="1053.011719" xlink:href="#Verdana-32"/>
     <use x="1116.585938" xlink:href="#Verdana-30"/>
     <use x="1180.160156" xlink:href="#Verdana-30"/>
     <use x="1243.734375" xlink:href="#Verdana-2c"/>
     <use x="1280.111328" xlink:href="#Verdana-20"/>
     <use x="1315.267578" xlink:href="#Verdana-63"/>
     <use x="1367.367188" xlink:href="#Verdana-6c"/>
     <use x="1394.808594" xlink:href="#Verdana-61"/>
     <use x="1454.867188" xlink:href="#Verdana-73"/>
     <use x="1506.966797" xlink:href="#Verdana-73"/>
     <use x="1559.066406" xlink:href="#Verdana-65"/>
     <use x="1618.636719" xlink:href="#Verdana-73"/>
     <use x="1670.736328" xlink:href="#Verdana-3d"/>
     <use x="1752.572266" xlink:href="#Verdana-35"/>
     <use x="1816.146484" xlink:href="#Verdana-2c"/>
     <use x="1852.523438" xlink:href="#Verdana-20"/>
     <use x="1887.679688" xlink:href="#Verdana-69"/>
     <use x="1915.121094" xlink:href="#Verdana-74"/>
     <use x="1954.525391" xlink:href="#Verdana-65"/>
     <use x="2014.095703" xlink:href="#Verdana-72"/>
     <use x="2056.755859" xlink:href="#Verdana-61"/>
     <use x="2116.814453" xlink:href="#Verdana-74"/>
     <use x="2156.21875" xlink:href="#Verdana-69"/>
     <use x="2183.660156" xlink:href="#Verdana-6f"/>
     <use x="2244.353516" xlink:href="#Verdana-6e"/>
     <use x="2307.634766" xlink:href="#Verdana-73"/>
     <use x="2359.734375" xlink:href="#Verdana-3d"/>
     <use x="2441.570312" xlink:href="#Verdana-31"/>
     <use x="2505.144531" xlink:href="#Verdana-30"/>
    </g>
   </g>
   <g id="legend_1">
    <g id="patch_7">
     <path d="M 32.96255 60.64005 
L 113.690675 60.64005 
Q 115.690675 60.64005 115.690675 58.64005 
L 115.690675 30.36505 
Q 115.690675 28.36505 113.690675 28.36505 
L 32.96255 28.36505 
Q 30.96255 28.36505 30.96255 30.36505 
L 30.96255 58.64005 
Q 30.96255 60.64005 32.96255 60.64005 
z
" style="fill:#ffffff;opacity:0.8;stroke:#cccccc;stroke-linejoin:miter;"/>
    </g>
    <g id="PathCollection_5">
     <g>
      <use style="fill:#ffffff;fill-opacity:0.8;stroke:#000000;stroke-opacity:0.8;" x="44.96255" xlink:href="#mea44604713" y="37.338488"/>
     </g>
    </g>
    <g id="text_10">
     <!-- training -->
     <defs>
      <path d="M 53.265625 6.203125 
Q 53.265625 -7.671875 46.96875 -14.15625 
Q 40.671875 -20.65625 27.59375 -20.65625 
Q 23.25 -20.65625 19.109375 -20.046875 
Q 14.984375 -19.4375 10.984375 -18.3125 
L 10.984375 -8.9375 
L 11.46875 -8.9375 
Q 13.71875 -9.8125 18.59375 -11.109375 
Q 23.484375 -12.40625 28.375 -12.40625 
Q 33.0625 -12.40625 36.125 -11.28125 
Q 39.203125 -10.15625 40.921875 -8.15625 
Q 42.625 -6.25 43.359375 -3.5625 
Q 44.09375 -0.875 44.09375 2.4375 
L 44.09375 7.421875 
Q 39.9375 4.109375 36.15625 2.46875 
Q 32.375 0.828125 26.515625 0.828125 
Q 16.75 0.828125 11.015625 7.875 
Q 5.28125 14.9375 5.28125 27.78125 
Q 5.28125 34.8125 7.25 39.90625 
Q 9.234375 45.015625 12.640625 48.734375 
Q 15.828125 52.203125 20.359375 54.125 
Q 24.90625 56.0625 29.390625 56.0625 
Q 34.125 56.0625 37.328125 55.109375 
Q 40.53125 54.15625 44.09375 52.203125 
L 44.671875 54.546875 
L 53.265625 54.546875 
z
M 44.09375 14.984375 
L 44.09375 44.734375 
Q 40.4375 46.390625 37.28125 47.09375 
Q 34.125 47.796875 31 47.796875 
Q 23.4375 47.796875 19.09375 42.71875 
Q 14.75 37.640625 14.75 27.984375 
Q 14.75 18.796875 17.96875 14.0625 
Q 21.1875 9.328125 28.65625 9.328125 
Q 32.671875 9.328125 36.6875 10.859375 
Q 40.71875 12.40625 44.09375 14.984375 
z
" id="Verdana-67"/>
     </defs>
     <g transform="translate(62.96255 39.963488)scale(0.1 -0.1)">
      <use xlink:href="#Verdana-74"/>
      <use x="39.404297" xlink:href="#Verdana-72"/>
      <use x="82.064453" xlink:href="#Verdana-61"/>
      <use x="142.123047" xlink:href="#Verdana-69"/>
      <use x="169.564453" xlink:href="#Verdana-6e"/>
      <use x="232.845703" xlink:href="#Verdana-69"/>
      <use x="260.287109" xlink:href="#Verdana-6e"/>
      <use x="323.568359" xlink:href="#Verdana-67"/>
     </g>
    </g>
    <g id="PathCollection_6">
     <g>
      <use style="fill-opacity:0.8;stroke:#000000;stroke-opacity:0.8;" x="44.96255" xlink:href="#m98c3c512fb" y="52.00255"/>
     </g>
    </g>
    <g id="text_11">
     <!-- validation -->
     <g transform="translate(62.96255 54.62755)scale(0.1 -0.1)">
      <use xlink:href="#Verdana-76"/>
      <use x="59.148438" xlink:href="#Verdana-61"/>
      <use x="119.207031" xlink:href="#Verdana-6c"/>
      <use x="146.648438" xlink:href="#Verdana-69"/>
      <use x="174.089844" xlink:href="#Verdana-64"/>
      <use x="236.394531" xlink:href="#Verdana-61"/>
      <use x="296.453125" xlink:href="#Verdana-74"/>
      <use x="335.857422" xlink:href="#Verdana-69"/>
      <use x="363.298828" xlink:href="#Verdana-6f"/>
      <use x="423.992188" xlink:href="#Verdana-6e"/>
     </g>
    </g>
   </g>
  </g>
 </g>
 <defs>
  <clipPath id="p8cf2f6af28">
   <rect height="135.693408" width="25.38135" x="95.309325" y="23.36505"/>
  </clipPath>
 </defs>
</svg>
